<svg width="20" height="20" viewBox="0 0 20 20" fill="none" xmlns="http://www.w3.org/2000/svg">
<path d="M16.9993 7.24184C16.9993 8.20165 16.9993 9.18378 16.9993 10.1436C16.9993 11.0141 16.6331 11.4829 15.793 11.4829C14.4574 11.4829 13.1434 11.4829 11.8079 11.4829C10.9463 11.4829 10.5801 10.9918 10.5801 10.1436C10.5801 8.20165 10.5801 6.28202 10.5801 4.34007C10.5801 3.4249 11.0324 2.97848 11.9156 3.0008C13.165 3.02312 14.4359 3.02312 15.6853 3.0008C16.59 2.97848 16.9993 3.4249 16.9993 4.34007C16.9993 5.29989 16.9993 6.28202 16.9993 7.24184ZM11.5279 10.5007C13.1004 10.5007 14.5651 10.5007 16.0515 10.5007C16.0515 8.29093 16.0515 6.12577 16.0515 3.98293C14.5005 3.98293 13.0573 3.98293 11.5279 3.98293C11.5279 6.17042 11.5279 8.29093 11.5279 10.5007Z" fill="#5E6165" stroke="#5E6165" stroke-width="0.1"/>
<path d="M9.43871 13.3579C9.43871 14.2954 9.43871 15.2106 9.43871 16.1481C9.43871 17.041 9.05098 17.532 8.14626 17.532C6.85381 17.532 5.56136 17.532 4.29044 17.532C3.47189 17.532 3.01953 17.1526 3.01953 16.282C3.01953 14.2731 3.01953 12.2865 3.01953 10.2776C3.01953 9.45173 3.45035 9.07227 4.22582 9.07227C5.53981 9.07227 6.87535 9.07227 8.18934 9.07227C9.02944 9.07227 9.43871 9.54101 9.43871 10.3892C9.46026 11.349 9.43871 12.3535 9.43871 13.3579ZM8.49092 16.5499C8.49092 14.3401 8.49092 12.2196 8.49092 10.0321C6.93997 10.0321 5.47519 10.0321 3.94579 10.0321C3.94579 12.2419 3.94579 14.3624 3.94579 16.5499C5.45365 16.5499 6.91843 16.5499 8.49092 16.5499Z" fill="#5E6165" stroke="#5E6165" stroke-width="0.1"/>
<path d="M6.16365 7.86701C2.65248 7.91165 2.99714 7.97862 3.01868 4.54114C3.01868 3.31347 3.29871 3.0233 4.44038 3.00098C5.68975 3.00098 6.93912 3.00098 8.18849 3.00098C9.02859 3.00098 9.43786 3.4474 9.43786 4.29561C9.43786 5.00989 9.41632 5.70185 9.43786 6.41613C9.4594 7.46523 8.94242 7.88933 7.97308 7.86701C7.39148 7.84469 6.76679 7.86701 6.16365 7.86701ZM3.9234 6.84023C5.51742 6.84023 7.00374 6.84023 8.49006 6.84023C8.49006 5.83578 8.49006 4.9206 8.49006 4.00543C6.91758 4.00543 5.4528 4.00543 3.9234 4.00543C3.9234 4.98757 3.9234 5.8581 3.9234 6.84023Z" fill="#5E6165" stroke="#5E6165" stroke-width="0.1"/>
<path d="M13.8543 17.5099C13.165 17.5099 12.4973 17.5099 11.808 17.5099C11.0325 17.5099 10.6017 17.1304 10.5801 16.3268C10.5586 15.5233 10.5586 14.6974 10.5801 13.8938C10.6017 13.0679 11.054 12.6885 11.808 12.6662C13.1219 12.6438 14.4575 12.6438 15.7715 12.6662C16.59 12.6662 17.0208 13.1126 16.9993 13.9831C16.9778 14.6974 16.9778 15.3893 16.9993 16.1036C17.0208 17.1527 16.5469 17.5992 15.5561 17.5322C14.996 17.4875 14.4144 17.5099 13.8543 17.5099ZM11.5495 13.6706C11.5495 14.6974 11.5495 15.6126 11.5495 16.5501C13.1004 16.5501 14.5652 16.5501 16.073 16.5501C16.073 15.5679 16.073 14.6527 16.073 13.6706C14.5436 13.6706 13.0573 13.6706 11.5495 13.6706Z" fill="#5E6165" stroke="#5E6165" stroke-width="0.1"/>
</svg>
