<svg width="20" height="20" viewBox="0 0 20 20" fill="none" xmlns="http://www.w3.org/2000/svg">
<g clip-path="url(#clip0_611_973)">
<path d="M10 17C8.35548 17 6.71575 17 5.07123 17C3.84384 17 3 16.1517 3 14.9247C3 12.1256 3 9.33139 3.00479 6.53235C3.00479 6.37898 3.04795 6.20644 3.11507 6.06744C3.41712 5.42999 3.73836 4.80212 4.05479 4.17426C4.44795 3.38822 5.08082 3 5.95822 3C8.65753 3 11.3521 3 14.0514 3C14.9288 3 15.5616 3.39302 15.95 4.17426C16.2664 4.81171 16.5877 5.44437 16.8993 6.08661C16.9616 6.21123 17 6.3646 17 6.50359C17.0048 9.33139 17.0048 12.1544 17.0048 14.9822C17.0048 16.1373 16.1418 17 14.9815 17C13.3178 17 11.6589 17 10 17ZM15.9212 6.95892C11.961 6.95892 8.02466 6.95892 4.07397 6.95892C4.07397 7.03081 4.07397 7.09312 4.07397 7.15543C4.07397 9.74358 4.07397 12.3365 4.07397 14.9247C4.07397 15.5621 4.43836 15.9216 5.07603 15.9216C8.35548 15.9216 11.6349 15.9216 14.9144 15.9216C15.5616 15.9216 15.9164 15.5621 15.9164 14.9103C15.9164 12.3269 15.9164 9.74358 15.9164 7.15543C15.9212 7.09312 15.9212 7.0356 15.9212 6.95892ZM15.5712 5.85656C15.5473 5.80383 15.5329 5.7607 15.5137 5.72236C15.3315 5.3581 15.1493 4.99384 14.9671 4.62479C14.7801 4.25094 14.4829 4.0736 14.0658 4.0736C11.3568 4.0784 8.64795 4.0784 5.93904 4.0736C5.51233 4.0736 5.21027 4.25573 5.02329 4.63437C4.84589 4.99863 4.6637 5.3581 4.4863 5.71756C4.46712 5.7607 4.44795 5.80863 4.42877 5.85656C8.14932 5.85656 11.8555 5.85656 15.5712 5.85656Z" fill="#5E6165"/>
<path d="M10.0001 13.0556C10.6042 13.0556 11.2083 13.0508 11.8172 13.0556C12.0665 13.0604 12.2727 13.2425 12.3206 13.4726C12.3686 13.7122 12.2583 13.9614 12.0377 14.0621C11.9514 14.1052 11.8459 14.1244 11.7453 14.1244C10.5802 14.1292 9.41513 14.1292 8.25006 14.1244C7.90485 14.1244 7.66992 13.8991 7.66992 13.5828C7.66992 13.2665 7.90006 13.0508 8.25006 13.0508C8.83499 13.0508 9.41992 13.0508 10.0001 13.0556Z" fill="#5E6165"/>
</g>
<defs>
<clipPath id="clip0_611_973">
<rect width="14" height="14" fill="white" transform="translate(3 3)"/>
</clipPath>
</defs>
</svg>
