<svg width="20" height="20" viewBox="0 0 20 20" fill="none" xmlns="http://www.w3.org/2000/svg">
<path d="M4 10.5045C4 8.58036 4 6.65625 4 4.72768C4 3.67411 4.74328 3.00446 5.90496 3.00446C8.19387 3.00446 10.4828 3.00446 12.7717 3C13.0178 3 13.2048 3.07589 13.3673 3.24554C14.5044 4.45536 15.6463 5.66071 16.7883 6.86607C16.9311 7.01786 17 7.18304 17 7.38393C16.9951 10.3616 17 13.3438 16.9951 16.3214C16.9951 17.308 16.237 18 15.1492 18C12.0481 18 8.94699 18 5.84589 18C4.76297 18 4 17.308 4 16.3259C4 14.3839 4 12.442 4 10.5045ZM12.2696 4.07143C12.181 4.07143 12.117 4.07143 12.0481 4.07143C9.99546 4.07143 7.9379 4.07143 5.88527 4.07143C5.39303 4.07143 5.18137 4.26786 5.18137 4.71429C5.18137 8.56696 5.18137 12.4241 5.18137 16.2768C5.18137 16.7321 5.39796 16.9241 5.90004 16.9241C8.96176 16.9241 12.0284 16.9241 15.0901 16.9241C15.5971 16.9241 15.8137 16.7321 15.8137 16.2768C15.8137 13.5223 15.8137 10.7634 15.8137 8.00893C15.8137 7.95089 15.8137 7.88839 15.8137 7.81696C15.7251 7.81696 15.6611 7.81696 15.5922 7.81696C14.7308 7.81696 13.8694 7.81696 13.008 7.81696C12.4714 7.81696 12.2647 7.62946 12.2647 7.13839C12.2696 6.12946 12.2696 5.11607 12.2696 4.07143ZM13.451 6.74107C14.0072 6.74107 14.5437 6.74107 15.1098 6.74107C14.5585 6.15625 14.022 5.58929 13.4707 5.00893C13.4608 5.04911 13.451 5.0625 13.451 5.07589C13.451 5.625 13.451 6.17857 13.451 6.74107Z" fill="#5E6165"/>
<path d="M8.50366 9.19934C8.50366 8.99946 8.50366 8.79958 8.50366 8.59495C8.50783 8.24754 8.72028 7.99531 9.0077 8.00007C9.2868 8.00483 9.49925 8.25229 9.50341 8.59019C9.50758 8.79007 9.50341 8.9947 9.50341 9.18982C9.69503 9.26121 9.88249 9.3088 10.0574 9.39446C10.5656 9.64193 10.8947 10.0655 10.9905 10.6984C11.0447 11.0696 10.8614 11.379 10.5656 11.4218C10.2782 11.4646 10.0408 11.2314 10.0033 10.8602C9.98246 10.6556 9.87415 10.5176 9.72003 10.4414C9.24931 10.2178 8.77026 10.2178 8.29538 10.4414C8.27039 10.451 8.24956 10.47 8.22873 10.489C7.9413 10.708 7.9413 11.0078 8.22873 11.2267C8.44534 11.3885 8.69528 11.4266 8.94522 11.4266C9.29097 11.4313 9.62838 11.4694 9.95747 11.6074C10.2616 11.7359 10.5198 11.9405 10.7156 12.2404C11.2363 13.0351 11.003 14.0916 10.1991 14.5533C9.98246 14.677 9.74502 14.7484 9.49925 14.8483C9.49925 15.0196 9.49925 15.2052 9.49925 15.3956C9.49508 15.743 9.28264 16 8.99937 16C8.71611 16 8.50366 15.743 8.4995 15.3956C8.4995 15.2052 8.4995 15.0149 8.4995 14.8721C8.22457 14.7389 7.95797 14.6484 7.72469 14.4914C7.32479 14.2249 7.07485 13.8156 7.0082 13.2778C6.96238 12.9161 7.14567 12.6163 7.43726 12.5735C7.72469 12.5354 7.96213 12.7639 7.99546 13.1208C8.01628 13.3349 8.12459 13.4777 8.28288 13.5539C8.7536 13.7823 9.23265 13.7728 9.70753 13.5586C9.72836 13.5491 9.74502 13.5348 9.76168 13.5253C10.0408 13.3207 10.0533 13.0446 9.78668 12.8162C9.57006 12.6306 9.31179 12.583 9.04936 12.5783C8.70361 12.5735 8.3662 12.5354 8.03711 12.3974C7.73302 12.2689 7.47475 12.0643 7.27897 11.7645C6.78742 11.0221 6.96238 10.0369 7.67054 9.54675C7.79551 9.46109 7.92881 9.39446 8.06627 9.33735C8.2079 9.27549 8.3537 9.24217 8.50366 9.19934Z" fill="#5E6165"/>
<path d="M9.01043 5.99815C8.52659 5.99815 8.04275 5.99815 7.55474 5.99815C7.22523 5.99815 7 5.7902 7 5.49492C7.00417 5.20379 7.22523 5 7.5464 5C8.51408 5 9.48592 5 10.4536 5C10.7706 5 11 5.20795 11 5.49492C11 5.78604 10.7748 5.99399 10.4578 5.99815C9.9781 6.00231 9.49426 5.99815 9.01043 5.99815Z" fill="#5E6165"/>
</svg>
