<?xml version="1.0" encoding="utf-8"?>
<!-- Generator: Adobe Illustrator 25.4.1, SVG Export Plug-In . SVG Version: 6.00 Build 0)  -->
<svg version="1.1" id="Layer_1" xmlns="http://www.w3.org/2000/svg" xmlns:xlink="http://www.w3.org/1999/xlink" x="0px" y="0px"
	 viewBox="0 0 31 31" style="enable-background:new 0 0 31 31;" xml:space="preserve">
<style type="text/css">
	.st0{fill:#565657;}
</style>
<path class="st0" d="M15.5,4c4.9,0,8.8,3.9,9,8.9l0,0.3v5l1.7,3.9c0.1,0.2,0.1,0.4,0.1,0.6c0,0.8-0.7,1.5-1.5,1.5l-5.7,0
	c0,2-1.6,3.7-3.6,3.7c-1.9,0-3.5-1.5-3.6-3.5l0-0.2l-5.7,0c-0.2,0-0.4,0-0.6-0.1c-0.8-0.3-1.1-1.2-0.8-2l1.6-3.9v-5
	C6.5,8.1,10.5,4,15.5,4z M17.3,24.2l-3.6,0c0,1,0.8,1.8,1.8,1.8c0.9,0,1.7-0.7,1.8-1.7L17.3,24.2z M15.5,5.8c-4,0-7.2,3.3-7.2,7.3
	v5.4l-1.6,3.8h17.6l-1.6-3.8l0-5.4l0-0.3C22.5,8.9,19.4,5.8,15.5,5.8z"/>
</svg>
