<svg width="21" height="20" viewBox="0 0 21 20" fill="none" xmlns="http://www.w3.org/2000/svg">
<path d="M1 13.529C1.09896 13.2883 1.29193 13.1679 1.54428 13.086C2.46956 12.7875 3.38989 12.4745 4.31517 12.1664C4.79018 12.0075 5.02274 12.1182 5.20087 12.5805C5.21076 12.6045 5.22066 12.6238 5.26024 12.696C5.38889 12.5612 5.52744 12.4601 5.61155 12.3301C6.92278 10.2067 9.88169 9.75405 11.8609 11.3671C11.9351 11.4297 12.0539 11.473 12.1528 11.473C12.5833 11.4826 13.0187 11.473 13.4492 11.4778C14.1024 11.4826 14.6169 11.7523 14.9732 12.2867C14.9881 12.3108 15.0078 12.3349 15.0326 12.3734C15.5373 12.046 16.037 11.7138 16.5417 11.3912C16.8633 11.1889 17.1751 10.9578 17.5214 10.8182C18.3577 10.4715 19.3126 10.8134 19.7579 11.5838C20.2033 12.3445 20.0251 13.3172 19.2978 13.8372C17.9767 14.7761 16.6357 15.6958 15.2948 16.6058C14.6615 17.0343 13.944 17.3232 13.182 17.4436C12.5685 17.5399 11.9401 17.5736 11.3216 17.5977C9.94602 17.6507 8.56552 17.6795 7.18502 17.7229C7.1306 17.7229 7.07617 17.7325 7.02174 17.7373C7.05638 18.1899 6.95247 18.344 6.5022 18.4885C5.56702 18.7966 4.63185 19.1096 3.69667 19.4178C3.64719 19.437 3.59771 19.4611 3.54823 19.4852C3.44927 19.4852 3.35031 19.4852 3.25135 19.4852C3.0089 19.3696 2.89014 19.177 2.80603 18.9314C2.44482 17.8818 2.07372 16.8321 1.70262 15.7824C1.47996 15.118 1.2375 14.4487 1 13.7842C1 13.6975 1 13.6157 1 13.529ZM5.59671 13.7216C5.93318 14.675 6.25974 15.6043 6.58137 16.5384C6.62095 16.654 6.68527 16.6588 6.78918 16.6588C8.52099 16.6058 10.2478 16.548 11.9797 16.4999C12.9891 16.471 13.9242 16.2158 14.7505 15.6572C16.037 14.7905 17.3037 13.8998 18.5754 13.0186C18.9118 12.7827 18.9762 12.3734 18.7485 12.0604C18.5259 11.7523 18.1053 11.6801 17.7639 11.9015C16.9326 12.436 16.1113 12.9753 15.2849 13.5194C15.2305 13.5579 15.1761 13.6205 15.1563 13.6831C14.8693 14.4583 14.2706 14.8772 13.4245 14.8772C12.425 14.882 11.4205 14.8772 10.421 14.8772C10.3369 14.8772 10.2478 14.8724 10.1637 14.8435C9.91138 14.7665 9.75799 14.5161 9.79263 14.2657C9.83221 13.9961 10.0598 13.7987 10.3617 13.7938C10.8367 13.789 11.3117 13.7938 11.7916 13.7938C12.3557 13.7938 12.9148 13.7987 13.4789 13.7938C13.7956 13.789 14.038 13.6012 14.0974 13.322C14.1865 12.9175 13.8995 12.5756 13.4492 12.5708C12.9 12.566 12.3508 12.566 11.7966 12.5708C11.6036 12.5708 11.4502 12.5082 11.3166 12.3782C9.78768 10.9289 7.47201 11.266 6.44777 13.0764C6.3785 13.1968 6.26469 13.3027 6.15089 13.3846C5.98266 13.5098 5.78968 13.6061 5.59671 13.7216ZM2.26174 13.9961C2.76149 15.4261 3.26124 16.8369 3.76099 18.2573C4.43887 18.031 5.10191 17.8096 5.77979 17.5881C5.27509 16.158 4.78523 14.752 4.28054 13.3268C3.60266 13.5531 2.93962 13.7698 2.26174 13.9961Z" fill="#5E6165"/>
<path d="M18.0156 5.55995C18.0354 8.05894 15.9374 10.1198 13.3496 10.1438C10.7569 10.1679 8.62425 8.12153 8.60941 5.59365C8.59951 3.08503 10.6925 1.0194 13.2704 1.00014C15.878 0.980875 17.9958 3.01762 18.0156 5.55995ZM16.9023 5.57439C16.9023 3.6532 15.2892 2.08351 13.315 2.08351C11.3407 2.08351 9.72766 3.6532 9.72271 5.57439C9.72271 7.49558 11.3308 9.06046 13.315 9.06046C15.2942 9.06046 16.9023 7.49558 16.9023 5.57439Z" fill="#5E6165"/>
<path d="M14.819 4.40418C14.8289 4.77975 14.626 5.0205 14.3291 5.04939C14.0174 5.07828 13.7651 4.8905 13.7205 4.57271C13.6958 4.3801 13.5968 4.31269 13.4138 4.32232C13.3346 4.32714 13.2455 4.30788 13.1763 4.32714C13.0921 4.35121 12.9734 4.39455 12.9486 4.45715C12.9289 4.51493 12.9882 4.64012 13.0526 4.68827C13.4731 5.00606 13.9086 5.30459 14.3291 5.61756C14.7695 5.9498 14.9377 6.50352 14.7695 7.0091C14.6409 7.38467 14.3836 7.63986 14.0125 7.80358C13.9531 7.82765 13.8937 7.89988 13.8789 7.95766C13.7948 8.24174 13.5869 8.41508 13.3099 8.40545C13.0377 8.39582 12.8447 8.22248 12.7705 7.94321C12.7557 7.89024 12.6963 7.82765 12.6419 7.80358C12.1669 7.59653 11.8947 7.24985 11.8254 6.74909C11.7809 6.41685 11.9838 6.13277 12.3054 6.08943C12.6122 6.0461 12.8794 6.25796 12.9289 6.59501C12.9486 6.74909 13.0278 6.8165 13.1861 6.81168C13.2851 6.80687 13.389 6.82613 13.483 6.80687C13.5622 6.78761 13.681 6.73946 13.6958 6.68649C13.7106 6.61427 13.6661 6.49389 13.6018 6.44574C13.201 6.1424 12.7903 5.8535 12.3846 5.55978C12.0976 5.35755 11.9096 5.09273 11.8452 4.75086C11.7314 4.1538 12.0432 3.58081 12.6221 3.34488C12.721 3.30636 12.7705 3.25821 12.7903 3.14746C12.8398 2.89708 13.0624 2.72856 13.3197 2.72374C13.582 2.71893 13.7997 2.87301 13.8591 3.1282C13.8888 3.24858 13.9432 3.30154 14.0521 3.34969C14.5271 3.576 14.7844 3.95638 14.819 4.40418Z" fill="#5E6165"/>
</svg>
