<?xml version="1.0" encoding="utf-8"?>
<!-- Generator: Adobe Illustrator 25.4.1, SVG Export Plug-In . SVG Version: 6.00 Build 0)  -->
<svg version="1.1" id="Layer_1" xmlns="http://www.w3.org/2000/svg" xmlns:xlink="http://www.w3.org/1999/xlink" x="0px" y="0px"
	 viewBox="0 0 31 31" style="enable-background:new 0 0 31 31;" xml:space="preserve">
<style type="text/css">
	.st0{fill:#565657;}
</style>
<g>
	<path class="st0" d="M18.4,3.8c0.5,0.1,0.7,0.5,0.8,1c0.1,0.7,0.3,1.3,0.4,2c0,0.1,0.1,0.2,0.2,0.3c0.3,0.2,0.6,0.4,0.9,0.6
		c0.1,0,0.2,0.1,0.3,0c0.7-0.2,1.3-0.4,2-0.6c0.6-0.2,0.9,0,1.2,0.5c0.9,1.6,1.8,3.1,2.7,4.7c0.3,0.5,0.2,0.9-0.2,1.4
		c-0.5,0.5-1,1-1.5,1.5c-0.1,0.1-0.2,0.2-0.1,0.3c0,0.4,0,0.7,0,1.1c0,0.1,0,0.2,0.1,0.3c0.5,0.5,1,1,1.5,1.5
		c0.4,0.4,0.5,0.8,0.2,1.4c-0.9,1.6-1.8,3.1-2.6,4.7c-0.3,0.5-0.7,0.7-1.2,0.5c-0.7-0.2-1.4-0.4-2-0.6c-0.1,0-0.2,0-0.3,0
		c-0.3,0.2-0.6,0.4-0.9,0.6c-0.1,0.1-0.2,0.2-0.2,0.3c-0.2,0.7-0.3,1.4-0.5,2.1c-0.1,0.6-0.4,0.8-1,0.8c-1.8,0-3.6,0-5.3,0
		c-0.6,0-0.9-0.3-1-0.8c-0.2-0.7-0.3-1.4-0.5-2.1c0-0.1-0.1-0.2-0.2-0.3c-0.3-0.2-0.6-0.4-0.9-0.6c-0.1,0-0.2-0.1-0.3,0
		c-0.7,0.2-1.4,0.4-2.1,0.6c-0.5,0.2-0.9,0-1.2-0.5c-0.9-1.6-1.8-3.1-2.7-4.7c-0.3-0.5-0.2-0.9,0.2-1.3c0.5-0.5,1-1,1.6-1.5
		c0.1-0.1,0.1-0.2,0.1-0.3c0-0.4,0-0.7,0-1.1c0-0.1,0-0.2-0.1-0.3c-0.5-0.5-1-1-1.5-1.5c-0.4-0.4-0.5-0.8-0.2-1.4
		C4.8,10.6,5.7,9,6.6,7.4c0.3-0.5,0.7-0.7,1.3-0.5c0.7,0.2,1.3,0.4,2,0.6c0.1,0,0.2,0,0.3,0c0.3-0.2,0.6-0.4,0.9-0.6
		c0.1-0.1,0.2-0.2,0.2-0.3c0.2-0.7,0.3-1.3,0.4-2c0.1-0.5,0.3-0.8,0.8-1C14.5,3.8,16.5,3.8,18.4,3.8z M7.9,8.9
		c-0.7,1.2-1.3,2.3-2,3.5c-0.1,0.1,0,0.2,0.1,0.3c0.5,0.4,0.9,0.9,1.4,1.3c0.3,0.3,0.4,0.6,0.4,1.1c0,0.6,0,1.1,0,1.7
		c0,0.4-0.1,0.8-0.4,1.1c-0.4,0.4-0.9,0.8-1.3,1.3c-0.1,0.1-0.1,0.2,0,0.3c0.4,0.7,0.8,1.3,1.1,2c0.3,0.5,0.5,0.9,0.8,1.4
		c0.6-0.2,1.3-0.4,1.9-0.6c0.4-0.1,0.7-0.1,1.1,0.2c0.5,0.3,1,0.6,1.5,0.9c0.4,0.2,0.6,0.4,0.7,0.8c0.1,0.6,0.3,1.2,0.4,1.8
		c0,0.1,0.1,0.2,0.2,0.2c1.2,0,2.5,0,3.7,0c0.1,0,0.2,0,0.2-0.2c0.1-0.6,0.3-1.2,0.4-1.8c0.1-0.4,0.3-0.7,0.7-0.9
		c0.5-0.3,1-0.5,1.5-0.9c0.4-0.2,0.7-0.3,1.1-0.2c0.6,0.2,1.3,0.4,1.9,0.6c0,0,0,0,0.1-0.1c0.6-1.1,1.3-2.3,1.9-3.4
		c0.1-0.1,0-0.2-0.1-0.3c-0.4-0.4-0.9-0.8-1.3-1.3c-0.3-0.3-0.4-0.6-0.4-1.1c0-0.6,0-1.1,0-1.7c0-0.4,0.1-0.8,0.4-1
		c0.4-0.4,0.9-0.8,1.3-1.3c0.1-0.1,0.1-0.2,0-0.4c-0.6-1.1-1.2-2.1-1.8-3.2c0-0.1-0.1-0.1-0.1-0.2c-0.6,0.2-1.3,0.4-1.9,0.6
		c-0.4,0.1-0.7,0.1-1-0.2c-0.5-0.3-1-0.6-1.5-0.9C18.3,8.3,18.1,8,18,7.6c-0.1-0.6-0.3-1.2-0.4-1.8c0-0.2-0.1-0.2-0.3-0.2
		c-1.2,0-2.5,0-3.7,0c-0.1,0-0.1,0-0.2,0c-0.1,0.7-0.3,1.3-0.4,2c-0.1,0.4-0.3,0.7-0.7,0.9c-0.5,0.3-1,0.6-1.5,0.9
		c-0.4,0.2-0.7,0.3-1.1,0.2C9.2,9.3,8.5,9.1,7.9,8.9z"/>
	<path class="st0" d="M19.2,15.8c0,2.1-1.7,3.8-3.7,3.8c-2,0-3.7-1.7-3.7-3.8c0-2.1,1.7-3.8,3.7-3.8C17.5,12,19.2,13.7,19.2,15.8z
		 M17.3,15.8c0-1-0.8-1.9-1.8-1.9c-1,0-1.9,0.9-1.8,1.9c0,1,0.8,1.9,1.8,1.9C16.5,17.7,17.3,16.8,17.3,15.8z"/>
</g>
</svg>
