<svg width="20" height="20" viewBox="0 0 20 20" fill="none" xmlns="http://www.w3.org/2000/svg">
<path d="M9.74775 15.3757C7.38151 15.3757 5.01527 15.3757 2.64903 15.3757C2.19381 15.3757 2 15.2059 2 14.811C2 12.3432 2 9.87539 2.00451 7.40757C2.00451 7.27727 2.04056 7.14302 2.09916 7.02456C2.54085 6.13615 2.99607 5.25168 3.44228 4.36326C3.56848 4.10661 3.7713 4 4.08229 4C7.85926 4.00395 11.6317 4.00395 15.4087 4C15.7332 4 15.936 4.11451 16.0622 4.37116C16.5039 5.25563 16.9591 6.13615 17.4008 7.02062C17.4594 7.13907 17.4955 7.27727 17.4955 7.40362C17.5 9.87539 17.5 12.3472 17.5 14.8189C17.5 15.194 17.2972 15.3717 16.869 15.3717C14.4892 15.3757 12.1185 15.3757 9.74775 15.3757ZM7.40404 7.80242C5.94824 7.80242 4.51948 7.80242 3.09072 7.80242C3.09072 10.0136 3.09072 12.2169 3.09072 14.4201C7.53475 14.4201 11.9653 14.4201 16.4003 14.4201C16.4003 12.209 16.4003 10.0057 16.4003 7.80242C14.958 7.80242 13.5337 7.80242 12.0869 7.80242C12.0869 7.86955 12.0869 7.92483 12.0869 7.98405C12.0869 8.99882 12.0915 10.0175 12.0824 11.0323C12.0824 11.1508 12.0464 11.2811 11.9788 11.3798C11.8436 11.5812 11.5776 11.6285 11.2892 11.5298C10.8114 11.364 10.3382 11.1942 9.86042 11.0323C9.79282 11.0086 9.69366 11.0086 9.62605 11.0323C9.15731 11.1902 8.68857 11.3403 8.23335 11.518C7.76912 11.6996 7.38601 11.4153 7.39503 11.0165C7.41756 10.0057 7.40404 8.99487 7.40404 7.98011C7.40404 7.92877 7.40404 7.86955 7.40404 7.80242ZM16.1073 6.83898C16.0983 6.8074 16.0938 6.7837 16.0848 6.76396C15.7918 6.18748 15.4988 5.61099 15.2104 5.03451C15.1698 4.94764 15.1022 4.95159 15.0211 4.95159C11.5055 4.95159 7.98997 4.95159 4.47441 4.94764C4.36173 4.94764 4.30765 4.97923 4.26258 5.07005C3.99666 5.61099 3.71721 6.15194 3.44679 6.69289C3.42425 6.73632 3.40622 6.77976 3.37918 6.83898C7.6294 6.83898 11.8616 6.83898 16.1073 6.83898ZM8.50378 7.79847C8.50378 8.6711 8.50378 9.53187 8.50378 10.4045C8.84182 10.286 9.16633 10.1755 9.48633 10.057C9.66211 9.99385 9.83338 9.99385 10.0092 10.057C10.1759 10.1163 10.3427 10.1755 10.5095 10.2347C10.6672 10.29 10.8249 10.3453 10.9917 10.4005C10.9917 9.52003 10.9917 8.6632 10.9917 7.79847C10.1579 7.79847 9.3376 7.79847 8.50378 7.79847Z" fill="#5E6165"/>
</svg>
