<svg width="20" height="20" viewBox="0 0 20 20" fill="none" xmlns="http://www.w3.org/2000/svg">
<path d="M3 16.1686C3.27701 16.1686 3.55402 16.1686 3.84561 16.1686C3.84561 14.7799 3.84561 13.4021 3.84561 12.0207C4.66936 12.0207 5.47852 12.0207 6.30226 12.0207C6.30226 13.3984 6.30226 14.7762 6.30226 16.1613C6.57928 16.1613 6.84171 16.1613 7.11872 16.1613C7.11872 13.967 7.11872 11.7692 7.11872 9.56403C7.94611 9.56403 8.75892 9.56403 9.58266 9.56403C9.58266 11.7619 9.58266 13.9561 9.58266 16.1576C9.85967 16.1576 10.1221 16.1576 10.4064 16.1576C10.4064 14.5101 10.4064 12.859 10.4064 11.2006C11.2301 11.2006 12.0393 11.2006 12.8631 11.2006C12.8631 12.8481 12.8631 14.4992 12.8631 16.1613C13.1437 16.1613 13.4098 16.1613 13.6868 16.1613C13.6868 13.4167 13.6868 10.6757 13.6868 7.92383C14.5105 7.92383 15.3234 7.92383 16.1507 7.92383C16.1507 10.6684 16.1507 13.413 16.1507 16.1649C16.4387 16.1649 16.7084 16.1649 17 16.1649C17 16.4456 17 16.7189 17 16.9887C12.3345 16.9887 7.6691 16.9887 3.00364 16.9887C3 16.7153 3 16.4419 3 16.1686ZM15.3197 16.1613C15.3197 13.6827 15.3197 11.2115 15.3197 8.74393C15.0463 8.74393 14.7803 8.74393 14.5142 8.74393C14.5142 11.2224 14.5142 13.69 14.5142 16.1613C14.7839 16.1613 15.0463 16.1613 15.3197 16.1613ZM8.75892 16.1613C8.75892 14.2258 8.75892 12.3013 8.75892 10.3768C8.48555 10.3768 8.22312 10.3768 7.95704 10.3768C7.95704 12.305 7.95704 14.2295 7.95704 16.1613C8.22312 16.1613 8.48555 16.1613 8.75892 16.1613ZM12.0393 16.1613C12.0393 14.7726 12.0393 13.3984 12.0393 12.0243C11.7659 12.0243 11.4999 12.0243 11.2338 12.0243C11.2338 13.4094 11.2338 14.7835 11.2338 16.1613C11.5035 16.1613 11.7659 16.1613 12.0393 16.1613ZM5.47852 16.1613C5.47852 15.0459 5.47852 13.9415 5.47852 12.8444C5.20151 12.8444 4.93908 12.8444 4.67665 12.8444C4.67665 13.9561 4.67665 15.0569 4.67665 16.1613C4.94272 16.1613 5.20515 16.1613 5.47852 16.1613Z" fill="#5E6165" stroke="#5E6165" stroke-width="0.1"/>
<path d="M15.5057 3.81645C14.9371 3.81645 14.3211 3.81645 13.6978 3.81645C13.6978 3.53944 13.6978 3.27337 13.6978 3C14.7913 3 15.8847 3 16.9855 3C16.9855 4.08253 16.9855 5.16871 16.9855 6.26217C16.7231 6.26217 16.457 6.26217 16.1763 6.26217C16.1763 5.64619 16.1763 5.03749 16.1763 4.42515C16.1618 4.41786 16.1508 4.41057 16.1362 4.39964C14.6528 5.90862 13.1693 7.4176 11.6895 8.92658C10.5596 7.79667 9.47339 6.70685 8.36899 5.60609C6.80169 7.1661 5.25262 8.70424 3.70718 10.2387C3.51036 10.0456 3.32447 9.85967 3.17139 9.71023C4.89177 7.96069 6.6158 6.2075 8.34712 4.44702C9.45517 5.55506 10.5413 6.64124 11.6421 7.74199C12.9433 6.42619 14.2336 5.11039 15.5057 3.81645Z" fill="#5E6165" stroke="#5E6165" stroke-width="0.1"/>
</svg>
