<svg width="20" height="20" viewBox="0 0 20 20" fill="none" xmlns="http://www.w3.org/2000/svg">
<path d="M11.0363 0C11.1262 0.0818453 11.223 0.156574 11.3059 0.241977C11.8038 0.750842 12.2982 1.26326 12.7926 1.77569C13.0691 2.06392 13.0691 2.35572 12.7926 2.6404C12.274 3.17773 11.7519 3.71506 11.2333 4.24884C10.9879 4.49793 10.6663 4.51572 10.452 4.29154C10.2411 4.07091 10.2549 3.75065 10.4935 3.50155C10.7286 3.25958 10.9671 3.02116 11.2022 2.78274C11.178 2.75783 11.1711 2.74004 11.1607 2.7436C10.3275 2.75071 9.49087 2.70801 8.66113 2.77206C6.68012 2.92508 5.12089 3.88587 4.05259 5.59395C2.73883 7.70057 2.66969 9.89972 3.80367 12.1238C3.97308 12.4583 3.91776 12.7679 3.64809 12.928C3.39571 13.0775 3.08802 12.9885 2.9359 12.7145C2.48299 11.9067 2.16492 11.042 2.06121 10.1168C1.72931 7.14901 2.7492 4.76482 5.07249 2.99269C6.2203 2.1173 7.54789 1.71163 8.97574 1.67605C9.65337 1.65826 10.331 1.67249 11.0121 1.67249C11.0674 1.67249 11.1227 1.67249 11.178 1.67249C11.1884 1.6547 11.1988 1.64046 11.2091 1.62267C10.9948 1.41272 10.777 1.20633 10.5661 0.992819C10.2065 0.619177 10.2134 0.355849 10.5903 0C10.7389 0 10.8876 0 11.0363 0Z" fill="#5E6165"/>
<path d="M7.81322 16.2401C9.03067 16.1904 10.2689 16.3785 11.4621 16.006C13.8486 15.2645 15.3047 13.6112 15.8408 11.1312C16.1624 9.64116 15.903 8.21139 15.1871 6.87386C15.1006 6.71066 15.0487 6.54746 15.1075 6.36652C15.1733 6.1572 15.322 6.02948 15.5364 6.00464C15.7647 5.97626 15.9411 6.07915 16.0552 6.28137C16.491 7.0619 16.7919 7.89209 16.9199 8.78259C17.3972 12.1211 15.7094 15.2893 12.7245 16.6729C11.8218 17.0916 10.8672 17.2796 9.87804 17.2903C9.2451 17.2938 8.61217 17.2903 7.97923 17.2903C7.92389 17.2903 7.86855 17.2903 7.75788 17.2903C8.03111 17.567 8.2663 17.8082 8.50149 18.046C8.62946 18.1737 8.70555 18.3191 8.68826 18.5036C8.67097 18.7236 8.56029 18.8797 8.35969 18.9613C8.14871 19.0429 7.96194 18.9932 7.8063 18.8336C7.36359 18.3865 6.9278 17.9324 6.48855 17.4819C6.37787 17.3683 6.26719 17.2583 6.15997 17.1448C5.949 16.9177 5.94554 16.6055 6.15652 16.382C6.70298 15.8144 7.24945 15.2503 7.80284 14.6897C8.02074 14.4697 8.34585 14.4733 8.54645 14.6791C8.74706 14.8884 8.7436 15.2148 8.52916 15.4419C8.28705 15.6937 8.04149 15.9385 7.79592 16.1869C7.79938 16.2082 7.8063 16.2259 7.81322 16.2401Z" fill="#5E6165"/>
<path d="M10.1247 12.7204C10.1247 12.9222 10.1289 13.1111 10.1247 13.3044C10.1164 13.7166 9.84489 14.0042 9.4857 14C9.12652 13.9914 8.8801 13.7123 8.87592 13.3044C8.87592 13.1197 8.87592 12.9351 8.87592 12.7161C8.60445 12.7161 8.34132 12.7161 8.08238 12.7161C7.9362 12.7161 7.79002 12.7204 7.64384 12.7161C7.26794 12.7075 7.00064 12.437 7.00064 12.0763C7.00064 11.7114 7.26794 11.4366 7.63966 11.4323C8.45827 11.428 9.28105 11.4366 10.0997 11.428C10.5549 11.4237 10.8514 11.0029 10.7136 10.5778C10.6259 10.3159 10.3962 10.1484 10.1038 10.1441C9.682 10.1398 9.25599 10.1484 8.83416 10.1398C7.90696 10.1184 7.11759 9.38414 7.01317 8.46098C6.90458 7.49058 7.47677 6.61036 8.38309 6.35702C8.53762 6.31409 8.69633 6.29691 8.87592 6.26256C8.87592 6.07363 8.87175 5.87612 8.87592 5.67861C8.8801 5.28787 9.13487 5.00878 9.4857 5.00019C9.84071 4.9916 10.1122 5.27499 10.1247 5.67002C10.1289 5.86753 10.1247 6.06505 10.1247 6.28403C10.5257 6.28403 10.9099 6.28403 11.29 6.28403C11.7076 6.28403 12 6.55024 12 6.9238C12 7.30166 11.7076 7.56787 11.29 7.56787C10.5131 7.56787 9.73212 7.56787 8.95528 7.56787C8.52927 7.56787 8.24944 7.8212 8.24944 8.20764C8.24944 8.59408 8.52927 8.84742 8.9511 8.85171C9.43558 8.856 9.92842 8.82165 10.4045 8.89035C11.3485 9.02346 12.0167 9.86934 11.9958 10.814C11.9708 11.8058 11.2566 12.5916 10.2834 12.7032C10.2417 12.7118 10.1915 12.7118 10.1247 12.7204Z" fill="#5E6165"/>
</svg>
