<?xml version="1.0" encoding="utf-8"?>
<!-- Generator: Adobe Illustrator 25.4.1, SVG Export Plug-In . SVG Version: 6.00 Build 0)  -->
<svg version="1.1" id="Layer_1" xmlns="http://www.w3.org/2000/svg" xmlns:xlink="http://www.w3.org/1999/xlink" x="0px" y="0px"
	 viewBox="0 0 31 31" style="enable-background:new 0 0 31 31;" xml:space="preserve">
<style type="text/css">
	.st0{fill:#565657;}
</style>
<g>
	<path class="st0" d="M22.6,15.5c0,4-3.2,7.3-7.1,7.3c-4,0-7.2-3.2-7.2-7.3c0-4.1,3.2-7.3,7.1-7.3C19.4,8.2,22.6,11.4,22.6,15.5z
		 M20.4,15.5c0-2.8-2.2-5.1-4.9-5.1c-2.7,0-5,2.3-5,5c0,2.8,2.2,5.1,4.9,5.1C18.2,20.6,20.4,18.3,20.4,15.5z"/>
	<path class="st0" d="M16.6,26.8c0,0.4,0,0.8,0,1.2c0,0.6-0.5,1.1-1.1,1.1c-0.6,0-1.1-0.4-1.1-1.1c0-0.8,0-1.6,0-2.4
		c0-0.6,0.5-1.1,1.1-1.1c0.6,0,1,0.4,1.1,1.1C16.6,26,16.6,26.4,16.6,26.8z"/>
	<path class="st0" d="M26.5,14.4c0.4,0,0.8,0,1.1,0c0.6,0,1,0.5,1,1.1c0,0.6-0.4,1.1-1,1.1c-0.8,0-1.6,0-2.5,0c-0.6,0-1-0.5-1-1.1
		c0-0.6,0.4-1,1-1.1c0.1,0,0.1,0,0.2,0C25.8,14.4,26.2,14.4,26.5,14.4L26.5,14.4z"/>
	<path class="st0" d="M8.3,21.5c0.6,0,0.9,0.2,1.1,0.7c0.2,0.4,0.1,0.8-0.2,1.2c-0.5,0.6-1.1,1.1-1.6,1.7c-0.3,0.3-0.7,0.5-1.2,0.2
		c-0.4-0.2-0.7-0.6-0.7-1.1c0-0.2,0.1-0.4,0.2-0.5c0.6-0.6,1.2-1.3,1.9-1.9C8,21.6,8.2,21.6,8.3,21.5z"/>
	<path class="st0" d="M22.6,9.5c-0.6,0-0.9-0.2-1.1-0.7c-0.2-0.4-0.2-0.8,0.1-1.2c0.6-0.6,1.2-1.2,1.8-1.8c0.4-0.4,1-0.3,1.4,0.1
		c0.3,0.4,0.5,1,0.1,1.5c-0.5,0.6-1.1,1.2-1.7,1.8C23,9.4,22.7,9.4,22.6,9.5z"/>
	<path class="st0" d="M4.5,14.4c0.4,0,0.7,0,1.1,0c0.6,0,1,0.5,1,1.1c0,0.6-0.4,1.1-1,1.1c-0.8,0-1.5,0.1-2.3,0
		c-0.7,0-1.2-0.5-1.1-1.2c0-0.5,0.4-1,0.9-1c0.2,0,0.5,0,0.7,0C4.1,14.4,4.3,14.4,4.5,14.4C4.5,14.4,4.5,14.4,4.5,14.4z"/>
	<path class="st0" d="M22.6,21.5c0.1,0.1,0.4,0.1,0.6,0.3c0.6,0.6,1.1,1.1,1.7,1.7c0.4,0.4,0.4,1.1,0,1.5c-0.4,0.4-1.1,0.5-1.5,0
		c-0.6-0.6-1.1-1.1-1.6-1.7c-0.3-0.3-0.4-0.8-0.2-1.2C21.7,21.8,22,21.6,22.6,21.5z"/>
	<path class="st0" d="M7,5.6c0.1,0.1,0.4,0.1,0.5,0.3C8.2,6.4,8.7,7,9.3,7.6c0.4,0.4,0.4,1.1-0.1,1.5c-0.4,0.4-1,0.5-1.5,0.1
		C7.2,8.6,6.7,8.1,6.1,7.5C5.8,7.1,5.7,6.7,5.9,6.3C6.1,5.8,6.5,5.7,7,5.6z"/>
	<path class="st0" d="M16.6,4.3c0,0.4,0,0.8,0,1.1c0,0.6-0.5,1-1,1c-0.6,0-1.1-0.4-1.1-1c0-0.8-0.1-1.6,0-2.4c0-0.7,0.5-1.1,1.2-1.1
		c0.5,0,0.9,0.4,1,0.9C16.6,3.4,16.6,3.9,16.6,4.3C16.6,4.3,16.6,4.3,16.6,4.3z"/>
</g>
</svg>
