<svg width="20" height="20" viewBox="0 0 20 20" fill="none" xmlns="http://www.w3.org/2000/svg">
<g clip-path="url(#clip0_611_981)">
<path d="M15.1288 17C12.0428 17 8.95719 17 5.87119 17C5.28975 16.7801 5.13872 16.5582 5.13872 15.9246C5.13872 15.6527 5.13872 15.3811 5.13872 15.0962C5.07612 15.0962 5.02877 15.0962 4.98104 15.0962C4.51737 15.0962 4.05332 15.0856 3.59044 15.1001C3.31733 15.1087 3.11738 15.0261 3 14.7737C3 12.5083 3 10.2429 3 7.97754C3.11699 7.72435 3.31733 7.64256 3.59044 7.65117C4.05371 7.66565 4.51776 7.65508 4.98143 7.65508C5.03229 7.65508 5.08355 7.65508 5.13872 7.65508C5.13872 7.57251 5.13872 7.51421 5.13872 7.45551C5.13872 5.94224 5.13794 4.42937 5.13911 2.9161C5.1395 2.37998 5.51513 2.00235 6.0504 2.00196C8.21768 2.00039 10.385 2.00196 12.5522 2C12.7138 2 12.843 2.05283 12.9568 2.16788C13.8622 3.08476 14.7692 4.00008 15.6782 4.91383C15.8069 5.04336 15.8644 5.18815 15.8632 5.37168C15.8578 6.0796 15.8609 6.78712 15.8609 7.49503C15.8609 7.54629 15.8609 7.59756 15.8609 7.65548C16.4243 7.65548 16.9655 7.65469 17.507 7.65587C17.8208 7.65665 17.9988 7.83196 17.9992 8.14424C18 10.2969 18 12.4492 17.9992 14.6019C17.9992 14.922 17.822 15.0958 17.4984 15.0962C17.0054 15.097 16.5124 15.0966 16.0194 15.0966C15.9681 15.0966 15.9172 15.0966 15.8605 15.0966C15.8605 15.4566 15.8648 15.7931 15.8593 16.1297C15.8538 16.4388 15.7204 16.6869 15.4598 16.854C15.3593 16.9174 15.2395 16.9519 15.1288 17ZM3.88507 14.2067C8.30259 14.2067 12.708 14.2067 17.1087 14.2067C17.1087 12.3103 17.1087 10.4245 17.1087 8.54183C12.6951 8.54183 8.2932 8.54183 3.88507 8.54183C3.88507 10.4323 3.88507 12.3146 3.88507 14.2067ZM6.02301 7.64452C9.01667 7.64452 11.9959 7.64452 14.9754 7.64452C14.9754 7.00117 14.9754 6.36879 14.9754 5.72153C14.9163 5.72153 14.8639 5.72153 14.8119 5.72153C14.0994 5.72153 13.3868 5.72192 12.6743 5.72153C12.3425 5.72114 12.1708 5.54896 12.1704 5.21594C12.17 4.49354 12.1704 3.77154 12.1704 3.04915C12.1704 2.9971 12.1704 2.94506 12.1704 2.8891C10.1126 2.8891 8.07095 2.8891 6.0234 2.8891C6.02301 4.47711 6.02301 6.0569 6.02301 7.64452ZM14.975 15.1056C11.9853 15.1056 9.00571 15.1056 6.02888 15.1056C6.02888 15.4488 6.02888 15.7826 6.02888 16.114C9.01628 16.114 11.9919 16.114 14.975 16.114C14.975 15.7771 14.975 15.4472 14.975 15.1056ZM14.279 4.83556C13.8759 4.4325 13.4565 4.01299 13.0558 3.61227C13.0558 3.99303 13.0558 4.41058 13.0558 4.83556C13.4804 4.83556 13.8982 4.83556 14.279 4.83556Z" fill="#5E6165" stroke="#5E6165" stroke-width="0.1"/>
<path d="M10.5098 9.29593C10.7355 9.29828 10.9081 9.42624 10.9997 9.66809C11.2532 10.338 11.5048 11.0088 11.7568 11.6795C11.8992 12.0583 12.042 12.4363 12.1821 12.8159C12.2819 13.0863 12.186 13.3309 11.9481 13.4244C11.7051 13.5195 11.4657 13.3959 11.3581 13.1212C11.3103 12.9999 11.2904 12.8331 11.2004 12.7729C11.1084 12.7114 10.9461 12.7529 10.8146 12.7525C10.5117 12.7514 10.2089 12.7576 9.90643 12.7494C9.80352 12.7467 9.7597 12.7823 9.73231 12.8754C9.70257 12.9779 9.6611 13.0777 9.61806 13.176C9.51632 13.4088 9.27608 13.5125 9.0511 13.4241C8.82689 13.336 8.71382 13.0949 8.80303 12.8578C9.20682 11.7813 9.61414 10.7055 10.0242 9.6313C10.1072 9.41372 10.2942 9.29358 10.5098 9.29593ZM10.1165 11.8658C10.3787 11.8658 10.6248 11.8658 10.887 11.8658C10.761 11.5308 10.6393 11.208 10.5023 10.8444C10.3638 11.2107 10.2414 11.5355 10.1165 11.8658Z" fill="#5E6165" stroke="#5E6165" stroke-width="0.1"/>
<path d="M14.2498 10.6177C14.4071 10.3982 14.5511 10.1974 14.6951 9.99626C14.8117 9.83346 14.9264 9.66989 15.0445 9.50827C15.2081 9.28482 15.4636 9.23121 15.671 9.37444C15.8842 9.52158 15.9229 9.78611 15.7578 10.0197C15.4624 10.4385 15.1658 10.856 14.863 11.2692C14.8019 11.3526 14.8074 11.4043 14.8657 11.4845C15.165 11.8942 15.4565 12.3094 15.7527 12.7215C15.8607 12.8713 15.8987 13.0287 15.8173 13.2016C15.6721 13.5108 15.2707 13.546 15.0606 13.2623C14.8195 12.9371 14.5883 12.6045 14.3524 12.2754C14.3242 12.2358 14.2944 12.1971 14.2522 12.1403C14.2154 12.1877 14.1833 12.2264 14.154 12.2671C13.9149 12.6002 13.6778 12.9343 13.4372 13.2662C13.3268 13.418 13.1734 13.4834 12.9888 13.445C12.8107 13.4079 12.6984 13.2912 12.6511 13.1163C12.6108 12.9672 12.6628 12.8396 12.7489 12.7191C13.0451 12.307 13.3362 11.8915 13.6363 11.4821C13.697 11.3996 13.6934 11.3475 13.6347 11.2669C13.3296 10.8494 13.0283 10.4291 12.7321 10.0053C12.5403 9.73133 12.6648 9.38383 12.9778 9.30987C13.175 9.2633 13.3327 9.33804 13.4485 9.49927C13.711 9.8632 13.9712 10.2287 14.2498 10.6177Z" fill="#5E6165" stroke="#5E6165" stroke-width="0.1"/>
<path d="M7.18959 10.1744C7.18959 11.0647 7.18959 11.933 7.18959 12.801C7.18959 12.8695 7.19116 12.9376 7.1892 13.006C7.18177 13.2651 6.99161 13.4572 6.74628 13.4549C6.50134 13.4525 6.31235 13.2592 6.31157 12.9982C6.30922 12.115 6.31079 11.2318 6.31079 10.3489C6.31079 10.2965 6.31079 10.2437 6.31079 10.1748C6.07641 10.1748 5.85338 10.1756 5.63075 10.1748C5.33729 10.1736 5.13617 9.99125 5.13969 9.73023C5.14282 9.47508 5.3412 9.29703 5.62723 9.29664C6.37848 9.29586 7.13012 9.29547 7.88137 9.29664C8.16427 9.29703 8.36264 9.48174 8.36108 9.73806C8.35951 9.99438 8.16192 10.1736 7.87668 10.1748C7.65287 10.1752 7.42945 10.1744 7.18959 10.1744Z" fill="#5E6165" stroke="#5E6165" stroke-width="0.1"/>
<path d="M8.49202 4.78386C8.16061 4.78386 7.8292 4.78464 7.49779 4.78347C7.21411 4.7823 7.01573 4.60228 7.01417 4.34675C7.0126 4.09121 7.21098 3.90572 7.4927 3.90533C8.17 3.90416 8.84769 3.90376 9.52499 3.90533C9.80632 3.90611 10.0043 4.09278 10.0012 4.3491C9.99844 4.59955 9.8028 4.7819 9.53008 4.78347C9.18419 4.78503 8.83791 4.78386 8.49202 4.78386Z" fill="#5E6165" stroke="#5E6165" stroke-width="0.1"/>
<path d="M8.50493 6.65886C8.16882 6.65886 7.83232 6.66004 7.49622 6.65847C7.21332 6.6573 7.01495 6.47572 7.01416 6.22018C7.01338 5.96464 7.21176 5.78072 7.49426 5.78033C8.17156 5.77916 8.84925 5.77876 9.52655 5.78033C9.8071 5.78111 10.0051 5.96934 10.0012 6.22566C9.99726 6.47611 9.80201 6.6569 9.52851 6.65847C9.18732 6.66004 8.84612 6.65886 8.50493 6.65886Z" fill="#5E6165" stroke="#5E6165" stroke-width="0.1"/>
</g>
<defs>
<clipPath id="clip0_611_981">
<rect width="15" height="15" fill="white" transform="translate(3 2)"/>
</clipPath>
</defs>
</svg>
